<svg id="Layer_2" data-name="Layer 2" xmlns="http://www.w3.org/2000/svg" xmlns:xlink="http://www.w3.org/1999/xlink" viewBox="0 0 400 300" width="406" height="306" class="illustration"><defs><linearGradient id="linear-gradient" x1="176.52" y1="140.83" x2="203.83" y2="120.35" gradientUnits="userSpaceOnUse"><stop offset="0" stop-color="#aa4200" stop-opacity="0"></stop><stop offset="0.98" stop-color="#aa003d"></stop></linearGradient><linearGradient id="linear-gradient-2" x1="94.18" y1="211.07" x2="121.49" y2="190.59" xlink:href="#linear-gradient"></linearGradient><linearGradient id="linear-gradient-3" x1="243.87" y1="213.95" x2="275.59" y2="190.15" xlink:href="#linear-gradient"></linearGradient><linearGradient id="linear-gradient-4" x1="181.29" y1="277.56" x2="191.53" y2="263.25" xlink:href="#linear-gradient"></linearGradient></defs><title>PP</title><path d="M194.28,289.5,14.56,183.29c-5.72-3.21-10.63-8.49-5.05-11.94l180.37-104c2.71-1.68,6.82-2.78,9.57-1.18L388.11,175.7c5.72,3.32,6.75,12.6,1,15.93L218,289.34A23.9,23.9,0,0,1,194.28,289.5Z" fill="#dd6f31"></path><path d="M213.82,100.1c-18.21,9.33-35.94,19.54-53.61,29.88l27,15c18.2-10.2,34.35-18.38,52.59-28.52Z" opacity="0.32" fill="url(#linear-gradient)"></path><path d="M165.73,197.75l-52.49-33.09-53.5,31.91,53.4,29.7C131.34,216.07,147.48,207.89,165.73,197.75Z" opacity="0.32" fill="url(#linear-gradient-2)"></path><path d="M90.66,204.4c.22.44,1.33,4.64,2.22,3.76s5.53,1.12,5.53,1.12l13-16.51-1.72-5.39H98" fill="#68e1fd"></path><path d="M153.36,133.26l1.22-4.29,13.65-7.44V98.29c0-.46-13.2,7.76-13.2,7.76l-.62-1.3a31.2,31.2,0,0,0-4-10.05L160,77l-12.21-9.28L138.68,86l-.08.05a20.77,20.77,0,0,0-10.07.18V68.62l-17.46,9.69V96.68a77.26,77.26,0,0,0-9.32,10.73l-10.53-6.72L79.33,123.31l9.42,7.5-.8,3.8A103.72,103.72,0,0,0,85,146.83l-14,7.71V177.7l13.33-8a30,30,0,0,0,4.31,11.87l-10,17,12.66,9.58,8.9-17.46H111.3v17.46L128,198V180.85A68.85,68.85,0,0,0,138,168.4l10,6.85,12.09-23.11-10-7.42,1-3.47C152,138.57,152.74,135.9,153.36,133.26Z" fill="#68e1fd"></path><polyline points="185.02 107.96 169.57 98.63 165.73 104.33 171.7 116.83" fill="#68e1fd"></polyline><polyline points="164.82 184.93 153.4 180.18 153.4 173.26" fill="#68e1fd"></polyline><polygon points="128.08 217.84 111.3 208.16 115.56 195.47 130.66 199.91 128.08 217.84" fill="#68e1fd"></polygon><polygon points="147.81 67.67 164.59 77.35 155.38 95.69 145.31 95.87 142.98 77.35 147.81 67.67" fill="#68e1fd"></polygon><ellipse cx="137.53" cy="147.75" rx="13.02" ry="7.57" transform="translate(-50.29 221.71) rotate(-68.55)" fill="#68e1fd"></ellipse><polygon points="111.07 78.31 127.85 87.99 145.31 78.3 128.53 68.62 111.07 78.31" fill="#68e1fd"></polygon><polygon points="108 110.36 91.22 100.68 79.33 123.31 96.11 132.99 108 110.36" fill="#68e1fd"></polygon><polygon points="78.67 198.58 95.45 208.25 108.12 217.84 91.33 208.16 78.67 198.58" fill="#68e1fd"></polygon><path d="M90.66,204.4c.22.44,1.33,4.64,2.22,3.76s5.53,1.12,5.53,1.12l13-16.51-1.72-5.39H98" fill="#053855" opacity="0.44"></path><path d="M153.36,133.26l1.22-4.29,13.65-7.44V98.29c0-.46-13.2,7.76-13.2,7.76l-.62-1.3a31.2,31.2,0,0,0-4-10.05L160,77l-12.21-9.28L138.68,86l-.08.05a20.77,20.77,0,0,0-10.07.18V68.62l-17.46,9.69V96.68a77.26,77.26,0,0,0-9.32,10.73l-10.53-6.72L79.33,123.31l9.42,7.5-.8,3.8A103.72,103.72,0,0,0,85,146.83l-14,7.71V177.7l13.33-8a30,30,0,0,0,4.31,11.87l-10,17,12.66,9.58,8.9-17.46H111.3v17.46L128,198V180.85A68.85,68.85,0,0,0,138,168.4l10,6.85,12.09-23.11-10-7.42,1-3.47C152,138.57,152.74,135.9,153.36,133.26Z" fill="#68e1fd"></path><polyline points="185.02 107.96 169.57 98.63 165.73 104.33 171.7 116.83" fill="#053855" opacity="0.44"></polyline><polyline points="164.82 184.93 153.4 180.18 153.4 173.26" fill="#68e1fd"></polyline><polygon points="128.08 217.84 111.3 208.16 115.56 195.47 130.66 199.91 128.08 217.84" fill="#68e1fd"></polygon><polygon points="147.81 67.67 164.59 77.35 155.38 95.69 145.31 95.87 142.98 77.35 147.81 67.67" fill="#68e1fd"></polygon><ellipse cx="137.53" cy="147.75" rx="13.02" ry="7.57" transform="translate(-50.29 221.71) rotate(-68.55)" fill="#68e1fd"></ellipse><polygon points="108 110.36 91.22 100.68 79.33 123.31 96.11 132.99 108 110.36" fill="#68e1fd"></polygon><polygon points="78.67 198.58 95.45 208.25 108.12 217.84 91.33 208.16 78.67 198.58" fill="#68e1fd"></polygon><path d="M153.36,133.26l1.22-4.29,13.65-7.44V98.29c0-.46-13.2,7.76-13.2,7.76l-.62-1.3a31.2,31.2,0,0,0-4-10.05L160,77l-12.21-9.28L138.68,86l-.08.05a20.77,20.77,0,0,0-10.07.18V68.62l-17.46,9.69V96.68a77.26,77.26,0,0,0-9.32,10.73l-10.53-6.72L79.33,123.31l9.42,7.5-.8,3.8A103.72,103.72,0,0,0,85,146.83l-14,7.71V177.7l13.33-8a30,30,0,0,0,4.31,11.87l-10,17,12.66,9.58,8.9-17.46H111.3v17.46L128,198V180.85A68.85,68.85,0,0,0,138,168.4l10,6.85,12.09-23.11-10-7.42,1-3.47C152,138.57,152.74,135.9,153.36,133.26Z" fill="#053855" opacity="0.44"></path><polyline points="164.82 184.93 153.4 180.18 153.4 173.26" fill="#053855" opacity="0.1"></polyline><polygon points="128.08 217.84 111.3 208.16 115.56 195.47 130.66 199.91 128.08 217.84" fill="#053855" opacity="0.1"></polygon><ellipse cx="137.53" cy="147.75" rx="13.02" ry="7.57" transform="translate(-50.29 221.71) rotate(-68.55)" fill="#053855" opacity="0.1"></ellipse><polygon points="108 110.36 91.22 100.68 79.33 123.31 96.11 132.99 108 110.36" fill="#053855" opacity="0.1"></polygon><polygon points="78.67 198.58 95.45 208.25 108.12 217.84 91.33 208.16 78.67 198.58" fill="#053855" opacity="0.1"></polygon><polyline points="164.82 184.93 153.4 180.18 153.4 173.26" fill="#053855" opacity="0.1"></polyline><polygon points="128.08 217.84 111.3 208.16 115.56 195.47 130.66 199.91 128.08 217.84" fill="#053855" opacity="0.44"></polygon><path d="M170.14,142.94l1.22-4.29L185,131.22V108c0-.46-13.2,7.76-13.2,7.76l-.62-1.3a31.2,31.2,0,0,0-4-10.05l9.61-17.75-12.21-9.28-9.13,18.3-.08.05a20.77,20.77,0,0,0-10.07.18V78.3L127.85,88v18.37a77.26,77.26,0,0,0-9.32,10.73L108,110.36,96.11,133l9.42,7.5-.8,3.8a103.72,103.72,0,0,0-2.92,12.23l-14,7.71v23.16l13.33-8a30,30,0,0,0,4.31,11.87l-10,17,12.66,9.58,8.9-17.46h11.07v17.46l16.66-10.15V190.53a68.85,68.85,0,0,0,10.06-12.45l10,6.85,12.09-23.11-10-7.42,1-3.47C168.76,148.24,169.52,145.57,170.14,142.94Z" fill="#68e1fd"></path><ellipse cx="137.53" cy="147.75" rx="13.02" ry="7.57" transform="translate(-50.29 221.71) rotate(-68.55)" fill="#053855" opacity="0.44"></ellipse><polygon points="78.67 198.58 95.45 208.25 108.12 217.84 91.33 208.16 78.67 198.58" fill="#053855" opacity="0.44"></polygon><polygon points="111.07 78.31 127.85 87.99 145.31 78.3 128.53 68.62 111.07 78.31" fill="#68e1fd"></polygon><polygon points="111.07 78.24 127.82 87.98 145.31 78.36 128.56 68.62 111.07 78.24" fill="#053855" opacity="0.44"></polygon><polygon points="71.03 154.54 87.81 164.21 87.81 187.38 71.03 177.7 71.03 154.54" fill="#68e1fd"></polygon><polygon points="71.03 154.54 87.81 164.21 87.81 187.38 71.03 177.7 71.03 154.54" fill="#053855" opacity="0.44"></polygon><path d="M192.6,106.22c.13.25.75,2.62,1.25,2.13S197,109,197,109l7.33-9.33-1-3h-6.6" fill="#68e1fd"></path><path d="M228,66l.69-2.42,7.71-4.2V46.26c0-.26-7.46,4.38-7.46,4.38l-.35-.73a17.63,17.63,0,0,0-2.26-5.68l5.43-10L224.89,29,219.74,39.3l0,0a11.74,11.74,0,0,0-5.69.1V29.5L204.14,35V45.35a43.65,43.65,0,0,0-5.27,6.06l-6-3.8L186.2,60.4l5.32,4.24-.45,2.15a58.61,58.61,0,0,0-1.65,6.91L181.51,78V91.13L189,86.63a17,17,0,0,0,2.44,6.71l-5.65,9.59,7.16,5.42,5-9.86h6.25v9.86l9.41-5.74v-9.7a38.9,38.9,0,0,0,5.68-7L225,89.74l6.83-13.06-5.67-4.19.56-2C227.25,69,227.68,67.51,228,66Z" fill="#68e1fd"></path><polyline points="245.92 51.73 237.19 46.45 235.02 49.67 238.39 56.74" fill="#68e1fd"></polyline><polyline points="234.51 95.21 228.05 92.53 228.05 88.62" fill="#68e1fd"></polyline><polygon points="213.75 113.81 204.26 108.34 206.67 101.17 215.2 103.68 213.75 113.81" fill="#68e1fd"></polygon><polygon points="224.9 28.96 234.38 34.43 229.17 44.79 223.48 44.9 222.17 34.43 224.9 28.96" fill="#68e1fd"></polygon><ellipse cx="219.08" cy="74.21" rx="7.36" ry="4.27" transform="translate(69.89 250.97) rotate(-68.55)" fill="#68e1fd"></ellipse><polygon points="204.14 34.97 213.62 40.44 223.48 34.97 214 29.5 204.14 34.97" fill="#68e1fd"></polygon><polygon points="202.4 53.08 192.92 47.61 186.2 60.4 195.68 65.86 202.4 53.08" fill="#68e1fd"></polygon><polygon points="185.83 102.93 195.31 108.39 202.47 113.81 192.98 108.34 185.83 102.93" fill="#68e1fd"></polygon><path d="M192.6,106.22c.13.25.75,2.62,1.25,2.13S197,109,197,109l7.33-9.33-1-3h-6.6" fill="#053855" opacity="0.44"></path><path d="M228,66l.69-2.42,7.71-4.2V46.26c0-.26-7.46,4.38-7.46,4.38l-.35-.73a17.63,17.63,0,0,0-2.26-5.68l5.43-10L224.89,29,219.74,39.3l0,0a11.74,11.74,0,0,0-5.69.1V29.5L204.14,35V45.35a43.65,43.65,0,0,0-5.27,6.06l-6-3.8L186.2,60.4l5.32,4.24-.45,2.15a58.61,58.61,0,0,0-1.65,6.91L181.51,78V91.13L189,86.63a17,17,0,0,0,2.44,6.71l-5.65,9.59,7.16,5.42,5-9.86h6.25v9.86l9.41-5.74v-9.7a38.9,38.9,0,0,0,5.68-7L225,89.74l6.83-13.06-5.67-4.19.56-2C227.25,69,227.68,67.51,228,66Z" fill="#68e1fd"></path><polyline points="245.92 51.73 237.19 46.45 235.02 49.67 238.39 56.74" fill="#053855" opacity="0.44"></polyline><polyline points="234.51 95.21 228.05 92.53 228.05 88.62" fill="#68e1fd"></polyline><polygon points="213.75 113.81 204.26 108.34 206.67 101.17 215.2 103.68 213.75 113.81" fill="#68e1fd"></polygon><polygon points="224.9 28.96 234.38 34.43 229.17 44.79 223.48 44.9 222.17 34.43 224.9 28.96" fill="#68e1fd"></polygon><ellipse cx="219.08" cy="74.21" rx="7.36" ry="4.27" transform="translate(69.89 250.97) rotate(-68.55)" fill="#68e1fd"></ellipse><polygon points="202.4 53.08 192.92 47.61 186.2 60.4 195.68 65.86 202.4 53.08" fill="#68e1fd"></polygon><polygon points="185.83 102.93 195.31 108.39 202.47 113.81 192.98 108.34 185.83 102.93" fill="#68e1fd"></polygon><path d="M228,66l.69-2.42,7.71-4.2V46.26c0-.26-7.46,4.38-7.46,4.38l-.35-.73a17.63,17.63,0,0,0-2.26-5.68l5.43-10L224.89,29,219.74,39.3l0,0a11.74,11.74,0,0,0-5.69.1V29.5L204.14,35V45.35a43.65,43.65,0,0,0-5.27,6.06l-6-3.8L186.2,60.4l5.32,4.24-.45,2.15a58.61,58.61,0,0,0-1.65,6.91L181.51,78V91.13L189,86.63a17,17,0,0,0,2.44,6.71l-5.65,9.59,7.16,5.42,5-9.86h6.25v9.86l9.41-5.74v-9.7a38.9,38.9,0,0,0,5.68-7L225,89.74l6.83-13.06-5.67-4.19.56-2C227.25,69,227.68,67.51,228,66Z" fill="#053855" opacity="0.44"></path><polyline points="234.51 95.21 228.05 92.53 228.05 88.62" fill="#053855" opacity="0.1"></polyline><polygon points="213.75 113.81 204.26 108.34 206.67 101.17 215.2 103.68 213.75 113.81" fill="#053855" opacity="0.1"></polygon><ellipse cx="219.08" cy="74.21" rx="7.36" ry="4.27" transform="translate(69.89 250.97) rotate(-68.55)" fill="#053855" opacity="0.1"></ellipse><polygon points="202.4 53.08 192.92 47.61 186.2 60.4 195.68 65.86 202.4 53.08" fill="#053855" opacity="0.1"></polygon><polygon points="185.83 102.93 195.31 108.39 202.47 113.81 192.98 108.34 185.83 102.93" fill="#053855" opacity="0.1"></polygon><polyline points="234.51 95.21 228.05 92.53 228.05 88.62" fill="#053855" opacity="0.1"></polyline><polygon points="213.75 113.81 204.26 108.34 206.67 101.17 215.2 103.68 213.75 113.81" fill="#053855" opacity="0.44"></polygon><path d="M237.51,71.49l.69-2.42,7.71-4.2V51.73c0-.26-7.46,4.38-7.46,4.38l-.35-.73a17.63,17.63,0,0,0-2.26-5.68l5.43-10-6.9-5.24-5.16,10.34,0,0a11.74,11.74,0,0,0-5.69.1V35l-9.86,5.47V50.82a43.65,43.65,0,0,0-5.27,6.06l-6-3.8-6.72,12.78L201,70.1l-.45,2.15a58.61,58.61,0,0,0-1.65,6.91L191,83.51V96.6l7.53-4.49A17,17,0,0,0,201,98.81l-5.65,9.59,7.16,5.42,5-9.86h6.25v9.86l9.41-5.74v-9.7a38.9,38.9,0,0,0,5.68-7l5.66,3.87,6.83-13.06L235.67,78l.56-2C236.73,74.49,237.16,73,237.51,71.49Z" fill="#68e1fd"></path><ellipse cx="219.08" cy="74.21" rx="7.36" ry="4.27" transform="translate(69.89 250.97) rotate(-68.55)" fill="#053855" opacity="0.44"></ellipse><polygon points="185.83 102.93 195.31 108.39 202.47 113.81 192.98 108.34 185.83 102.93" fill="#053855" opacity="0.44"></polygon><polygon points="204.14 34.97 213.62 40.44 223.48 34.97 214 29.5 204.14 34.97" fill="#68e1fd"></polygon><polygon points="204.14 34.93 213.6 40.44 223.48 35 214.02 29.5 204.14 34.93" fill="#053855" opacity="0.44"></polygon><polygon points="181.51 78.04 190.99 83.51 190.99 96.6 181.51 91.13 181.51 78.04" fill="#68e1fd"></polygon><polygon points="181.51 78.04 190.99 83.51 190.99 96.6 181.51 91.13 181.51 78.04" fill="#053855" opacity="0.44"></polygon><path d="M324.46,195.1l-64.58-26.53-53.5,31.91,53.4,29.7C278,220,306.22,205.23,324.46,195.1Z" opacity="0.32" fill="url(#linear-gradient-3)"></path><path d="M346.13,134.64c-3-12.52-13.48-26-26.28-29.1a28.38,28.38,0,0,0-22.64,4.28c-7.67,5.32-9.4,13.45-13.84,21.07-8.19,14.05-28.77,21.13-33.71,36.54-3.32,10.36,3.1,20.44,10.93,26.79,26.43,21.44,69.52,9,82.89-21.57C348.46,161.29,349.2,147.42,346.13,134.64Z" fill="#ffc2a4"></path><path d="M346.17,134.41c-3-12.52-13.48-26-26.28-29.1-.57-.14-1.15-.22-1.73-.32a26.48,26.48,0,0,1,8.38,6.6c7.84,9.26,9.06,22.67,8.43,34.34-.31,5.67-1.25,11.52-3.92,16.6s-6.92,7.83-12.26,10c-4.9,2-9.29,3.83-13.53,7a42,42,0,0,1-8.22,5.19c-6.36,2.81-13.6,2.5-20.16.54a48.74,48.74,0,0,1-26.58-19.72c-.22.54-.43,1.09-.6,1.65-3.32,10.36,3.1,20.44,10.93,26.79,26.43,21.44,69.52,9,82.89-21.57C348.5,161.06,349.24,147.19,346.17,134.41Z" fill="#f2a07c"></path><path d="M279.81,153.5s2.06-13.61,18.77-28.67c0,0,13.87,9.29,22.84,21.65,0,0-4.21,15.17-20.8,28C300.62,174.51,284.87,162.17,279.81,153.5Z" fill="#68e1fd"></path><path d="M321.42,146.48s-6.14,1.07-11.72,8.4-11.56,14.54-9.09,19.63C300.62,174.51,314.14,166,321.42,146.48Z" opacity="0.27"></path><path d="M298.31,160.91c-5.84-7.75-4.31-17.63-.72-26a.56.56,0,0,0-1-.43c-3.76,8.74-5.22,19,.86,27.11A.56.56,0,0,0,298.31,160.91Z" opacity="0.27"></path><path d="M254.53,230.54l-2-3.65s1.64-2.88,3.09-2.68S254.53,230.54,254.53,230.54Z" fill="#196132"></path><path d="M255.42,209.65s-8.09,14.31-9,14.67-9-.66-10.31.17,6.67,4.5,9.4,5.54,5.71,1.38,6.4.57,2.86-5.94,3.65-5.24-1,5.18-1,5.18l2.89.21L263.75,212" fill="#196132"></path><path d="M251.5,212l-3.17-2.73s.56-3.27,2-3.58S251.5,212,251.5,212Z" fill="#196132"></path><path d="M245,200.59s-2.58,7.71-3.32,8.37-8.69,2.48-9.62,3.7,7.81,1.94,10.73,2S248.67,214,249,213s.65-6.56,1.63-6.18.83,5.21.83,5.21l2.79-.79-.49-19.77" fill="#196132"></path><path d="M282.06,143.52c1.32,1.27,4.41,18.93,2.35,27.41s-22.66,12-22.66,12L258,202.26a25.34,25.34,0,0,1-13.95-.49c-2.72-.88-1.86-25.61.54-29.93s30-19.28,30-19.28" fill="#f9ddb4"></path><path d="M298.07,148.78c1.32,1.27,5.12,11.2,0,23.39-3.38,8-21.76,13.72-21.76,13.72L263,218.74a107.77,107.77,0,0,1-14.18-5.24s9.12-32.86,11.52-37.19,26.31-19.54,26.31-19.54" fill="#fff0d7"></path><path d="M291.52,125s13.63,5.66,9.82,25c-2.68,13.6-16.16,15.1-16.16,15.1s-8.83-5.56-7.84-7.42l12-6.25-13.59-6.87-9.81,10.29-7-5.46s10.12-15.88,14.52-22.44S291.52,125,291.52,125Z" fill="#ff9a22"></path><line x1="252.46" y1="147.61" x2="253.69" y2="146.4" fill="#fff7f0"></line><path d="M273.9,157.87l2.4-1.93S271,151,263.66,151.68a15.33,15.33,0,0,0-8.18-6.25l-3,2.17" fill="#ffe8bc"></path><polyline points="276.3 155.94 278.2 169.82 273.9 172.18 270.53 159.49" fill="#ffe8bc"></polyline><path d="M273.9,157.87l2,13.15-2,1.16S253.5,161,253.69,160.75s-1.23-13.14-1.23-13.14" fill="#68e1fd"></path><polygon points="253.94 146.54 273.9 157.87 272.03 158.92 252.46 147.61 253.94 146.54" fill="#68e1fd"></polygon><polygon points="253.94 146.54 273.9 157.87 272.03 158.92 252.46 147.61 253.94 146.54" fill="#1371a5" opacity="0.42"></polygon><path d="M271.34,159.69a1.09,1.09,0,0,1,1.33-1.33,13.3,13.3,0,0,0,4.86.82,1,1,0,0,1,.51.12l0,0a29.57,29.57,0,0,0,5.15,4.13l-.56.26a32.52,32.52,0,0,1-2.54,4.17,2.36,2.36,0,0,1-1.91,1,6,6,0,0,1-.78.5,2.24,2.24,0,0,1-2.5-.22,1.19,1.19,0,0,1-.87.16,1.14,1.14,0,0,1-1.23-.12,2.19,2.19,0,0,1-.81-2.94,2.28,2.28,0,0,1-.08-2.9,6.9,6.9,0,0,1,1.65-1.67A2.82,2.82,0,0,1,271.34,159.69Z" fill="#fdba45"></path><path d="M251.71,155.08c-.12-.18-.23-.37-.34-.55a1,1,0,0,1,.49-1.49l.15-.14a1.09,1.09,0,0,1,.44-1.37,1.11,1.11,0,0,1,1,0,1,1,0,0,1,.27.11,4.15,4.15,0,0,1,1.67,2.06,1.08,1.08,0,0,1-.5,1.22,1.15,1.15,0,0,1-.38.12h0a6.67,6.67,0,0,1,.92,1.63c.28.76-.5,1.43-1.19,1.36l.16.22c.6.78-.39,1.83-1.22,1.59a2.25,2.25,0,0,1-1.34-1.21c-.35-.64-.69-1.28-1-1.93A1.13,1.13,0,0,1,251.71,155.08Z" fill="#fdba45"></path><path d="M275.32,139.65s-.33,12.26.4,13.6,13.68,6.84,13.68,6.84l8-10.1Z" fill="#ff9a22"></path><path d="M281.91,118.67s-2.28,5-1.4,6.76,5.68.56,5.68.56" fill="#974c26"></path><path d="M281.5,116.13s-.14,10.1,4,11.19,6.34-4,6.34-4,.84-6.82-.5-8.25S283.69,113.27,281.5,116.13Z" fill="#fdba45"></path><path d="M279.9,115s2.79,4,4.44,5,3.52.43,4.1,1.8-1.49,9.49.41,11,5.6-2.87,7.23-.72.75,6.11,3.31,7,5.58-3.09,3.14-6.25-2.68-4.71-1.28-5.75c2.09-1.55-.07-7.26-2.51-8.34s-3.1-6.62-7.49-8S280.85,111.88,279.9,115Z" fill="#974c26"></path><path d="M276.3,135.77q0,8.48.33,17c0,.64-1,.64-1,0q-.35-8.48-.33-17A.5.5,0,0,1,276.3,135.77Z" fill="#f26250"></path><path d="M277.54,157.32a22.76,22.76,0,0,0,12.83-15.86c.14-.63,1.1-.36,1,.27A23.69,23.69,0,0,1,278,158.19C277.46,158.45,277,157.59,277.54,157.32Z" fill="#f26250"></path><path d="M185.93,255.44c-7.52,4.7-14.69,8.93-21.84,13.19,7.35,4.05,17.52,9.8,22.53,12.9,4.89-2.64,21.6-12.05,27.58-17Z" opacity="0.32" fill="url(#linear-gradient-4)"></path><ellipse cx="201.77" cy="257.31" rx="16.13" ry="11.36" fill="#68e1fd"></ellipse><ellipse cx="201.78" cy="250.6" rx="12.08" ry="4.95" fill="#974c26"></ellipse><path d="M202.58,250.72c1-1.33,1.9-2.73,2.9-4.3,1.28-2,2.48-4.05,3.57-6.16a40.7,40.7,0,0,0,2.61-5.84,48.74,48.74,0,0,0,1.91-6.69c.12-.6.23-1.2.33-1.8,0-.28.05-.25.05-.21s0-.19,0-.52c.11-1.22.19-2.44.2-3.67a30.84,30.84,0,0,0-2.4-12.35,53.25,53.25,0,0,0-8.62,21.09q-.13.68-.24,1.36s-.12.83-.17,1.16l-.13,1.14q-.09.86-.16,1.73c-.18,2.22-.26,4.46-.25,6.69C202.23,245.14,202.36,247.93,202.58,250.72Zm5.14-33.34q.44-.5.9-1h0a2,2,0,0,0-.06.87A2.77,2.77,0,0,0,207.72,217.38Z" fill="#999a1c"></path><path d="M202.89,250.92c.08-1.63.12-3.33.12-5.18,0-2.37-.11-4.75-.33-7.11a40.7,40.7,0,0,0-1-6.32,48.74,48.74,0,0,0-2-6.66c-.22-.57-.45-1.13-.69-1.69-.11-.26-.09-.24-.07-.2l-.25-.46c-.57-1.08-1.16-2.16-1.81-3.19a30.84,30.84,0,0,0-8.69-9.09,53.25,53.25,0,0,0,4.14,22.4q.26.64.53,1.27l.48,1.07.51,1q.39.78.8,1.54c1.05,2,2.19,3.89,3.4,5.76C199.58,246.42,201.2,248.7,202.89,250.92Zm-13.7-30.82q.1-.66.24-1.31h0a2,2,0,0,0,.42.76A2.77,2.77,0,0,0,189.19,220.1Z" fill="#999a1c"></path><path d="M203,251.77c-.48-.91-1-1.84-1.61-2.84-.77-1.28-1.59-2.53-2.47-3.73a25.6,25.6,0,0,0-2.56-3.1,30.65,30.65,0,0,0-3.24-2.95l-.92-.69c-.14-.1-.12-.1-.1-.09l-.28-.17c-.66-.4-1.32-.79-2-1.14a19.39,19.39,0,0,0-7.63-2.1,33.49,33.49,0,0,0,9.47,10.75l.7.51.6.42.61.39.93.57q1.81,1.08,3.7,2C199.73,250.41,201.34,251.12,203,251.77Zm-17.35-12.21q-.16-.39-.29-.78h0a1.26,1.26,0,0,0,.47.27A1.74,1.74,0,0,0,185.62,239.56Z" fill="#999a1c"></path><path d="M202.58,250.72c1-1.33,1.9-2.73,2.9-4.3,1.28-2,2.48-4.05,3.57-6.16a40.7,40.7,0,0,0,2.61-5.84,48.74,48.74,0,0,0,1.91-6.69c.12-.6.23-1.2.33-1.8,0-.28.05-.25.05-.21s0-.19,0-.52c.11-1.22.19-2.44.2-3.67a30.84,30.84,0,0,0-2.4-12.35,53.25,53.25,0,0,0-8.62,21.09q-.13.68-.24,1.36s-.12.83-.17,1.16l-.13,1.14q-.09.86-.16,1.73c-.18,2.22-.26,4.46-.25,6.69C202.23,245.14,202.36,247.93,202.58,250.72Zm5.14-33.34q.44-.5.9-1h0a2,2,0,0,0-.06.87A2.77,2.77,0,0,0,207.72,217.38Z" fill="#999a1c"></path><path d="M202.89,250.92c.08-1.63.12-3.33.12-5.18,0-2.37-.11-4.75-.33-7.11a40.7,40.7,0,0,0-1-6.32,48.74,48.74,0,0,0-2-6.66c-.22-.57-.45-1.13-.69-1.69-.11-.26-.09-.24-.07-.2l-.25-.46c-.57-1.08-1.16-2.16-1.81-3.19a30.84,30.84,0,0,0-8.69-9.09,53.25,53.25,0,0,0,4.14,22.4q.26.64.53,1.27l.48,1.07.51,1q.39.78.8,1.54c1.05,2,2.19,3.89,3.4,5.76C199.58,246.42,201.2,248.7,202.89,250.92Zm-13.7-30.82q.1-.66.24-1.31h0a2,2,0,0,0,.42.76A2.77,2.77,0,0,0,189.19,220.1Z" fill="#999a1c"></path><path d="M203,251.77c-.48-.91-1-1.84-1.61-2.84-.77-1.28-1.59-2.53-2.47-3.73a25.6,25.6,0,0,0-2.56-3.1,30.65,30.65,0,0,0-3.24-2.95l-.92-.69c-.14-.1-.12-.1-.1-.09l-.28-.17c-.66-.4-1.32-.79-2-1.14a19.39,19.39,0,0,0-7.63-2.1,33.49,33.49,0,0,0,9.47,10.75l.7.51.6.42.61.39.93.57q1.81,1.08,3.7,2C199.73,250.41,201.34,251.12,203,251.77Zm-17.35-12.21q-.16-.39-.29-.78h0a1.26,1.26,0,0,0,.47.27A1.74,1.74,0,0,0,185.62,239.56Z" fill="#999a1c"></path></svg>