<svg id="Layer_2" data-name="Layer 2" xmlns="http://www.w3.org/2000/svg" xmlns:xlink="http://www.w3.org/1999/xlink" viewBox="0 0 400 300" width="406" height="306" class="illustration"><defs><linearGradient id="linear-gradient" x1="181.72" y1="244" x2="273.08" y2="185.19" gradientUnits="userSpaceOnUse"><stop offset="0" stop-opacity="0"></stop><stop offset="0.99" stop-color="#1a1a1a"></stop></linearGradient><linearGradient id="linear-gradient-2" x1="111.92" y1="222.3" x2="156.81" y2="193.12" xlink:href="#linear-gradient"></linearGradient></defs><title>PP</title><path d="M194.28,289.5,14.56,183.29c-5.72-3.21-10.63-8.49-5.05-11.94l180.37-104c2.71-1.68,6.82-2.78,9.57-1.18L388.11,175.7c5.72,3.32,6.75,12.6,1,15.93L218,289.34A23.9,23.9,0,0,1,194.28,289.5Z" fill="#99ce34"></path><path d="M309.4,205c-.1.2-.59,2-1,1.66s-2.44.49-2.44.49l-5.72-7.28.76-2.38h5.15" fill="#68e1fd"></path><path d="M281.76,173.63l-.54-1.89-6-3.28V158.22c0-.2,5.82,3.42,5.82,3.42l.27-.57a13.75,13.75,0,0,1,1.77-4.43l-4.24-7.82,5.38-4.09,4,8.07,0,0a9.16,9.16,0,0,1,4.44.08v-7.75l7.7,4.27v8.1a34.06,34.06,0,0,1,4.11,4.73l4.64-3,5.24,10-4.15,3.3.35,1.67a45.72,45.72,0,0,1,1.29,5.39l6.17,3.4v10.21l-5.88-3.51a13.23,13.23,0,0,1-1.9,5.23l4.41,7.48-5.58,4.22-3.92-7.7H300.3v7.7L293,202.17v-7.56a30.35,30.35,0,0,1-4.43-5.49l-4.42,3L278.77,182l4.43-3.27-.44-1.53C282.37,176,282,174.79,281.76,173.63Z" fill="#68e1fd"></path><polyline points="267.8 162.48 274.61 158.37 276.31 160.88 273.67 166.39" fill="#68e1fd"></polyline><polyline points="276.7 196.41 281.74 194.31 281.74 191.27" fill="#68e1fd"></polyline><polygon points="292.9 210.92 300.3 206.65 298.42 201.06 291.76 203.01 292.9 210.92" fill="#68e1fd"></polygon><polygon points="284.2 144.72 276.81 148.99 280.87 157.07 285.31 157.15 286.33 148.99 284.2 144.72" fill="#68e1fd"></polygon><ellipse cx="288.74" cy="180.02" rx="3.34" ry="5.74" transform="translate(-45.84 118.08) rotate(-21.45)" fill="#68e1fd"></ellipse><polygon points="300.4 149.41 293 153.68 285.31 149.41 292.7 145.14 300.4 149.41" fill="#68e1fd"></polygon><polygon points="301.75 163.54 309.15 159.27 314.39 169.25 306.99 173.51 301.75 163.54" fill="#68e1fd"></polygon><polygon points="314.68 202.43 307.28 206.69 301.7 210.92 309.1 206.65 314.68 202.43" fill="#68e1fd"></polygon><path d="M309.4,205c-.1.2-.59,2-1,1.66s-2.44.49-2.44.49l-5.72-7.28.76-2.38h5.15" fill="#053855" opacity="0.44"></path><path d="M281.76,173.63l-.54-1.89-6-3.28V158.22c0-.2,5.82,3.42,5.82,3.42l.27-.57a13.75,13.75,0,0,1,1.77-4.43l-4.24-7.82,5.38-4.09,4,8.07,0,0a9.16,9.16,0,0,1,4.44.08v-7.75l7.7,4.27v8.1a34.06,34.06,0,0,1,4.11,4.73l4.64-3,5.24,10-4.15,3.3.35,1.67a45.72,45.72,0,0,1,1.29,5.39l6.17,3.4v10.21l-5.88-3.51a13.23,13.23,0,0,1-1.9,5.23l4.41,7.48-5.58,4.22-3.92-7.7H300.3v7.7L293,202.17v-7.56a30.35,30.35,0,0,1-4.43-5.49l-4.42,3L278.77,182l4.43-3.27-.44-1.53C282.37,176,282,174.79,281.76,173.63Z" fill="#68e1fd"></path><polyline points="267.8 162.48 274.61 158.37 276.31 160.88 273.67 166.39" fill="#053855" opacity="0.44"></polyline><polyline points="276.7 196.41 281.74 194.31 281.74 191.27" fill="#68e1fd"></polyline><polygon points="292.9 210.92 300.3 206.65 298.42 201.06 291.76 203.01 292.9 210.92" fill="#68e1fd"></polygon><polygon points="284.2 144.72 276.81 148.99 280.87 157.07 285.31 157.15 286.33 148.99 284.2 144.72" fill="#68e1fd"></polygon><ellipse cx="288.74" cy="180.02" rx="3.34" ry="5.74" transform="translate(-45.84 118.08) rotate(-21.45)" fill="#68e1fd"></ellipse><polygon points="301.75 163.54 309.15 159.27 314.39 169.25 306.99 173.51 301.75 163.54" fill="#68e1fd"></polygon><polygon points="314.68 202.43 307.28 206.69 301.7 210.92 309.1 206.65 314.68 202.43" fill="#68e1fd"></polygon><path d="M281.76,173.63l-.54-1.89-6-3.28V158.22c0-.2,5.82,3.42,5.82,3.42l.27-.57a13.75,13.75,0,0,1,1.77-4.43l-4.24-7.82,5.38-4.09,4,8.07,0,0a9.16,9.16,0,0,1,4.44.08v-7.75l7.7,4.27v8.1a34.06,34.06,0,0,1,4.11,4.73l4.64-3,5.24,10-4.15,3.3.35,1.67a45.72,45.72,0,0,1,1.29,5.39l6.17,3.4v10.21l-5.88-3.51a13.23,13.23,0,0,1-1.9,5.23l4.41,7.48-5.58,4.22-3.92-7.7H300.3v7.7L293,202.17v-7.56a30.35,30.35,0,0,1-4.43-5.49l-4.42,3L278.77,182l4.43-3.27-.44-1.53C282.37,176,282,174.79,281.76,173.63Z" fill="#053855" opacity="0.44"></path><polyline points="276.7 196.41 281.74 194.31 281.74 191.27" fill="#053855" opacity="0.1"></polyline><polygon points="292.9 210.92 300.3 206.65 298.42 201.06 291.76 203.01 292.9 210.92" fill="#053855" opacity="0.1"></polygon><ellipse cx="288.74" cy="180.02" rx="3.34" ry="5.74" transform="translate(-45.84 118.08) rotate(-21.45)" fill="#053855" opacity="0.1"></ellipse><polygon points="301.75 163.54 309.15 159.27 314.39 169.25 306.99 173.51 301.75 163.54" fill="#053855" opacity="0.1"></polygon><polygon points="314.68 202.43 307.28 206.69 301.7 210.92 309.1 206.65 314.68 202.43" fill="#053855" opacity="0.1"></polygon><polyline points="276.7 196.41 281.74 194.31 281.74 191.27" fill="#053855" opacity="0.1"></polyline><polygon points="292.9 210.92 300.3 206.65 298.42 201.06 291.76 203.01 292.9 210.92" fill="#053855" opacity="0.44"></polygon><path d="M274.36,177.9l-.54-1.89-6-3.28V162.48c0-.2,5.82,3.42,5.82,3.42l.27-.57a13.75,13.75,0,0,1,1.77-4.43l-4.24-7.82L276.8,149l4,8.07,0,0a9.16,9.16,0,0,1,4.44.08v-7.75l7.7,4.27v8.1a34.06,34.06,0,0,1,4.11,4.73l4.64-3,5.24,10-4.15,3.3.35,1.67a45.72,45.72,0,0,1,1.29,5.39l6.17,3.4v10.21L304.78,194a13.23,13.23,0,0,1-1.9,5.23l4.41,7.48-5.58,4.22-3.92-7.7H292.9v7.7l-7.34-4.48v-7.56a30.35,30.35,0,0,1-4.43-5.49l-4.42,3-5.33-10.19L275.8,183l-.44-1.53C275,180.24,274.63,179.06,274.36,177.9Z" fill="#68e1fd"></path><ellipse cx="288.74" cy="180.02" rx="3.34" ry="5.74" transform="translate(-45.84 118.08) rotate(-21.45)" fill="#053855" opacity="0.44"></ellipse><polygon points="314.68 202.43 307.28 206.69 301.7 210.92 309.1 206.65 314.68 202.43" fill="#053855" opacity="0.44"></polygon><polygon points="300.4 149.41 293 153.68 285.31 149.41 292.7 145.14 300.4 149.41" fill="#68e1fd"></polygon><polygon points="300.4 149.38 293.02 153.67 285.31 149.43 292.69 145.14 300.4 149.38" fill="#053855" opacity="0.44"></polygon><polygon points="318.05 183.01 310.65 187.28 310.65 197.49 318.05 193.22 318.05 183.01" fill="#68e1fd"></polygon><polygon points="318.05 183.01 310.65 187.28 310.65 197.49 318.05 193.22 318.05 183.01" fill="#053855" opacity="0.44"></polygon><polyline points="285.93 207.06 177.51 271.51 137.57 242.28 257.6 170" opacity="0.32" fill="url(#linear-gradient)"></polyline><polyline points="223.24 95.6 241.69 85.79 285.93 111.33 285.93 207.06 267.7 217.59" fill="#ea6a4b"></polyline><path d="M267.7,217.59c-1.39-.12,0-96.33,0-96.33L223.24,95.6v97Z" fill="#ff7f5c"></path><polyline points="223.24 113.7 267.48 138.6 285.93 129.2" fill="none" stroke="#f2f2f2" stroke-miterlimit="10" stroke-width="0.25"></polyline><polyline points="223.24 138.6 267.48 163.5 285.93 154.1" fill="none" stroke="#f2f2f2" stroke-miterlimit="10" stroke-width="0.25"></polyline><polyline points="223.24 161.01 267.48 185.91 285.93 176.51" fill="none" stroke="#f2f2f2" stroke-miterlimit="10" stroke-width="0.25"></polyline><polyline points="223.24 183.62 267.48 208.52 285.93 199.13" fill="none" stroke="#f2f2f2" stroke-miterlimit="10" stroke-width="0.25"></polyline><polygon points="267.7 121.27 285.93 111.33 241.69 85.79 223.24 95.6 267.7 121.27" fill="#ff886c"></polygon><ellipse cx="259.31" cy="124.44" rx="2.69" ry="3.24" transform="translate(-27.82 107.62) rotate(-22.28)" fill="#fff"></ellipse><path d="M228.68,108.59l23.64,13c.42.23.8-.41.38-.65l-23.64-13c-.42-.23-.8.41-.38.65Z" fill="#f2f2f2"></path><ellipse cx="259.31" cy="146.21" rx="2.69" ry="3.24" transform="translate(-36.07 109.25) rotate(-22.28)" fill="#fff"></ellipse><path d="M228.68,130.36l23.64,13c.42.23.8-.41.38-.65l-23.64-13c-.42-.23-.8.41-.38.65Z" fill="#f2f2f2"></path><ellipse cx="259.31" cy="170" rx="2.69" ry="3.24" transform="translate(-45.1 111.02) rotate(-22.28)" fill="#fff"></ellipse><path d="M228.68,154.15l23.64,13c.42.23.8-.41.38-.65l-23.64-13c-.42-.23-.8.41-.38.65Z" fill="#f2f2f2"></path><ellipse cx="259.31" cy="191.59" rx="2.69" ry="3.24" transform="translate(-53.28 112.64) rotate(-22.28)" fill="#fff"></ellipse><path d="M228.68,175.75l23.64,13c.42.23.8-.41.38-.65l-23.64-13c-.42-.23-.8.41-.38.65Z" fill="#f2f2f2"></path><path d="M237,135.44c-.1.2-.59,2-1,1.66s-2.44.49-2.44.49l-5.72-7.28.76-2.38h5.15" fill="#68e1fd"></path><path d="M209.39,104.08l-.54-1.89-6-3.28V88.67c0-.2,5.82,3.42,5.82,3.42l.27-.57a13.75,13.75,0,0,1,1.77-4.43l-4.24-7.82,5.38-4.09,4,8.07,0,0a9.16,9.16,0,0,1,4.44.08V75.59l7.7,4.27V88a34.06,34.06,0,0,1,4.11,4.73l4.64-3,5.24,10-4.15,3.3.35,1.67a45.72,45.72,0,0,1,1.29,5.39l6.17,3.4v10.21l-5.88-3.51a13.23,13.23,0,0,1-1.9,5.23l4.41,7.48-5.58,4.22-3.92-7.7h-4.88v7.7l-7.34-4.48v-7.56a30.35,30.35,0,0,1-4.43-5.49l-4.42,3-5.33-10.19,4.43-3.27-.44-1.53C210,106.42,209.67,105.24,209.39,104.08Z" fill="#68e1fd"></path><polyline points="195.44 92.93 202.25 88.82 203.94 91.33 201.31 96.84" fill="#68e1fd"></polyline><polyline points="204.34 126.86 209.38 124.77 209.38 121.72" fill="#68e1fd"></polyline><polygon points="220.54 141.37 227.93 137.1 226.06 131.5 219.4 133.46 220.54 141.37" fill="#68e1fd"></polygon><polygon points="211.84 75.17 204.44 79.44 208.5 87.52 212.94 87.6 213.97 79.44 211.84 75.17" fill="#68e1fd"></polygon><ellipse cx="216.37" cy="110.47" rx="3.34" ry="5.74" transform="translate(-25.41 86.79) rotate(-21.45)" fill="#68e1fd"></ellipse><polygon points="228.03 79.86 220.64 84.13 212.94 79.86 220.34 75.59 228.03 79.86" fill="#68e1fd"></polygon><polygon points="229.39 93.99 236.79 89.72 242.03 99.7 234.63 103.96 229.39 93.99" fill="#68e1fd"></polygon><polygon points="242.32 132.88 234.92 137.14 229.34 141.37 236.74 137.1 242.32 132.88" fill="#68e1fd"></polygon><path d="M237,135.44c-.1.2-.59,2-1,1.66s-2.44.49-2.44.49l-5.72-7.28.76-2.38h5.15" fill="#053855" opacity="0.44"></path><path d="M209.39,104.08l-.54-1.89-6-3.28V88.67c0-.2,5.82,3.42,5.82,3.42l.27-.57a13.75,13.75,0,0,1,1.77-4.43l-4.24-7.82,5.38-4.09,4,8.07,0,0a9.16,9.16,0,0,1,4.44.08V75.59l7.7,4.27V88a34.06,34.06,0,0,1,4.11,4.73l4.64-3,5.24,10-4.15,3.3.35,1.67a45.72,45.72,0,0,1,1.29,5.39l6.17,3.4v10.21l-5.88-3.51a13.23,13.23,0,0,1-1.9,5.23l4.41,7.48-5.58,4.22-3.92-7.7h-4.88v7.7l-7.34-4.48v-7.56a30.35,30.35,0,0,1-4.43-5.49l-4.42,3-5.33-10.19,4.43-3.27-.44-1.53C210,106.42,209.67,105.24,209.39,104.08Z" fill="#68e1fd"></path><polyline points="195.44 92.93 202.25 88.82 203.94 91.33 201.31 96.84" fill="#053855" opacity="0.44"></polyline><polyline points="204.34 126.86 209.38 124.77 209.38 121.72" fill="#68e1fd"></polyline><polygon points="220.54 141.37 227.93 137.1 226.06 131.5 219.4 133.46 220.54 141.37" fill="#68e1fd"></polygon><polygon points="211.84 75.17 204.44 79.44 208.5 87.52 212.94 87.6 213.97 79.44 211.84 75.17" fill="#68e1fd"></polygon><ellipse cx="216.37" cy="110.47" rx="3.34" ry="5.74" transform="translate(-25.41 86.79) rotate(-21.45)" fill="#68e1fd"></ellipse><polygon points="229.39 93.99 236.79 89.72 242.03 99.7 234.63 103.96 229.39 93.99" fill="#68e1fd"></polygon><polygon points="242.32 132.88 234.92 137.14 229.34 141.37 236.74 137.1 242.32 132.88" fill="#68e1fd"></polygon><path d="M209.39,104.08l-.54-1.89-6-3.28V88.67c0-.2,5.82,3.42,5.82,3.42l.27-.57a13.75,13.75,0,0,1,1.77-4.43l-4.24-7.82,5.38-4.09,4,8.07,0,0a9.16,9.16,0,0,1,4.44.08V75.59l7.7,4.27V88a34.06,34.06,0,0,1,4.11,4.73l4.64-3,5.24,10-4.15,3.3.35,1.67a45.72,45.72,0,0,1,1.29,5.39l6.17,3.4v10.21l-5.88-3.51a13.23,13.23,0,0,1-1.9,5.23l4.41,7.48-5.58,4.22-3.92-7.7h-4.88v7.7l-7.34-4.48v-7.56a30.35,30.35,0,0,1-4.43-5.49l-4.42,3-5.33-10.19,4.43-3.27-.44-1.53C210,106.42,209.67,105.24,209.39,104.08Z" fill="#053855" opacity="0.44"></path><polyline points="204.34 126.86 209.38 124.77 209.38 121.72" fill="#053855" opacity="0.1"></polyline><polygon points="220.54 141.37 227.93 137.1 226.06 131.5 219.4 133.46 220.54 141.37" fill="#053855" opacity="0.1"></polygon><ellipse cx="216.37" cy="110.47" rx="3.34" ry="5.74" transform="translate(-25.41 86.79) rotate(-21.45)" fill="#053855" opacity="0.1"></ellipse><polygon points="229.39 93.99 236.79 89.72 242.03 99.7 234.63 103.96 229.39 93.99" fill="#053855" opacity="0.1"></polygon><polygon points="242.32 132.88 234.92 137.14 229.34 141.37 236.74 137.1 242.32 132.88" fill="#053855" opacity="0.1"></polygon><polyline points="204.34 126.86 209.38 124.77 209.38 121.72" fill="#053855" opacity="0.1"></polyline><polygon points="220.54 141.37 227.93 137.1 226.06 131.5 219.4 133.46 220.54 141.37" fill="#053855" opacity="0.44"></polygon><path d="M202,108.35l-.54-1.89-6-3.28V92.93c0-.2,5.82,3.42,5.82,3.42l.27-.57a13.75,13.75,0,0,1,1.77-4.43l-4.24-7.82,5.38-4.09,4,8.07,0,0a9.16,9.16,0,0,1,4.44.08V79.86l7.7,4.27v8.1A34.06,34.06,0,0,1,224.75,97l4.64-3,5.24,10-4.15,3.3.35,1.67a45.72,45.72,0,0,1,1.29,5.39l6.17,3.4v10.21l-5.88-3.51a13.23,13.23,0,0,1-1.9,5.23l4.41,7.48-5.58,4.22-3.92-7.7h-4.88v7.7l-7.34-4.48v-7.56a30.35,30.35,0,0,1-4.43-5.49l-4.42,3L199,116.67l4.43-3.27-.44-1.53C202.61,110.69,202.27,109.51,202,108.35Z" fill="#68e1fd"></path><ellipse cx="216.37" cy="110.47" rx="3.34" ry="5.74" transform="translate(-25.41 86.79) rotate(-21.45)" fill="#053855" opacity="0.44"></ellipse><polygon points="242.32 132.88 234.92 137.14 229.34 141.37 236.74 137.1 242.32 132.88" fill="#053855" opacity="0.44"></polygon><polygon points="228.03 79.86 220.64 84.13 212.94 79.86 220.34 75.59 228.03 79.86" fill="#68e1fd"></polygon><polygon points="228.03 79.83 220.65 84.12 212.94 79.88 220.32 75.59 228.03 79.83" fill="#053855" opacity="0.44"></polygon><polygon points="245.69 113.46 238.29 117.73 238.29 127.94 245.69 123.67 245.69 113.46" fill="#68e1fd"></polygon><polygon points="245.69 113.46 238.29 117.73 238.29 127.94 245.69 123.67 245.69 113.46" fill="#053855" opacity="0.44"></polygon><path d="M276.06,85.07c-4.43-9.47-13.91-13.95-21.69-9.67-3.32,1.82-.78,8.47,2.56,6.63,4.79-2.63,11.08-.28,13.91,5.77C272.75,91.87,278,89.18,276.06,85.07Z" fill="#2c2cb5"></path><path d="M282.55,74.35c-7.91-11.85-19.88-16.06-31-11.32-3.46,1.47-.89,8.1,2.56,6.63,8.72-3.72,17.89-.19,24,9C280.62,82.36,285,78,282.55,74.35Z" fill="#2c2cb5"></path><path d="M288.43,66.33c-9.67-16.78-26.17-22.83-40.75-15.54-3.38,1.69-.83,8.33,2.56,6.63,12.39-6.2,25.67-.87,33.8,13.25C286.28,74.55,290.66,70.2,288.43,66.33Z" fill="#2c2cb5"></path><path d="M127.27,241.56l79.11-47-32-41.85L77.79,210.85C93.64,222.06,110.53,231.71,127.27,241.56Z" opacity="0.32" fill="url(#linear-gradient-2)"></path><polyline points="135.59 68.66 156.43 57.58 206.38 86.43 206.38 194.53 185.8 206.43" fill="#ea6a4b"></polyline><path d="M185.8,206.43c-1.57-.13,0-108.78,0-108.78l-50.21-29V178.21Z" fill="#ff7f5c"></path><polyline points="135.59 89.1 185.56 117.22 206.38 106.6" fill="none" stroke="#f2f2f2" stroke-miterlimit="10" stroke-width="0.25"></polyline><polyline points="135.59 117.22 185.56 145.34 206.38 134.72" fill="none" stroke="#f2f2f2" stroke-miterlimit="10" stroke-width="0.25"></polyline><polyline points="135.59 142.53 185.56 170.64 206.38 160.03" fill="none" stroke="#f2f2f2" stroke-miterlimit="10" stroke-width="0.25"></polyline><polyline points="135.59 168.06 185.56 196.18 206.38 185.57" fill="none" stroke="#f2f2f2" stroke-miterlimit="10" stroke-width="0.25"></polyline><polygon points="185.8 97.64 206.38 86.43 156.43 57.58 135.59 68.66 185.8 97.64" fill="#ff886c"></polygon><ellipse cx="176.33" cy="101.22" rx="3.03" ry="3.66" transform="translate(-25.21 74.42) rotate(-22.28)" fill="#fff"></ellipse><path d="M141.76,83.29,168.46,98c.42.23.8-.41.38-.65L142.14,82.64c-.42-.23-.8.41-.38.65Z" fill="#f2f2f2"></path><ellipse cx="176.33" cy="125.81" rx="3.03" ry="3.66" transform="translate(-34.54 76.26) rotate(-22.28)" fill="#fff"></ellipse><path d="M141.76,107.88l26.69,14.68c.42.23.8-.41.38-.65l-26.69-14.68c-.42-.23-.8.41-.38.65Z" fill="#f2f2f2"></path><ellipse cx="176.33" cy="152.67" rx="3.03" ry="3.66" transform="translate(-44.72 78.26) rotate(-22.28)" fill="#fff"></ellipse><path d="M141.76,134.74l26.69,14.68c.42.23.8-.41.38-.65l-26.69-14.68c-.42-.23-.8.41-.38.65Z" fill="#f2f2f2"></path><ellipse cx="176.33" cy="177.06" rx="3.03" ry="3.66" transform="translate(-53.97 80.08) rotate(-22.28)" fill="#fff"></ellipse><path d="M141.76,159.13l26.69,14.68c.42.23.8-.41.38-.65l-26.69-14.68c-.42-.23-.8.41-.38.65Z" fill="#f2f2f2"></path><path d="M106,134.39S101,197.06,147.63,252c0,0,18.41-.3,36.83-31.19l5.35-31.19L188,177.75l-24.65-23.46S131.89,138.85,131.29,138,106,134.39,106,134.39Z" fill="#68e1fd"></path><path d="M187.72,180.43c1.19,68.31-40.1,71.58-40.1,71.58,54.06-10.4,44.55-74.25,44.55-74.25" fill="#68e1fd"></path><path d="M187.72,180.43s-29.4-38.61-81.68-46l6.24-3.86s44.55,1.19,79.89,47.22Z" fill="#68e1fd"></path><path d="M187.72,180.43c1.19,68.31-40.1,71.58-40.1,71.58,54.06-10.4,44.55-74.25,44.55-74.25" fill="#053855" opacity="0.44"></path><path d="M187.72,180.43s-29.4-38.61-81.68-46l6.24-3.86s44.55,1.19,79.89,47.22Z" fill="#053855" opacity="0.44"></path><path d="M155.77,222l6-3.91c.05,0-4-3.11-4-3.11l-2.35,4.41" fill="#3d65af"></path><polyline points="132.69 175.38 138 171.91 139.31 178.92 133.94 177.83" fill="#3d65af"></polyline><path d="M140,171.74a1.89,1.89,0,0,0-2.83,1.6l-.59,29.91a2.68,2.68,0,0,0,1.31,2.3l21,12.55a2.68,2.68,0,0,0,4-2.3V186.54a2.68,2.68,0,0,0-1.39-2.35Z" fill="#2c2cb5"></path><path d="M134.4,175.46a1.89,1.89,0,0,0-2.83,1.6L131,207a2.68,2.68,0,0,0,1.31,2.3l21,12.55a2.68,2.68,0,0,0,4-2.3V190.27a2.68,2.68,0,0,0-1.39-2.35Z" fill="#5f5cea"></path><ellipse cx="143.24" cy="193.48" rx="4.53" ry="7.2" transform="translate(-14.92 11.99) rotate(-4.56)" fill="#68e1fd"></ellipse><rect x="140.9" y="194.49" width="3.42" height="14.2" rx="1.42" ry="1.42" fill="#68e1fd"></rect><ellipse cx="154.84" cy="183.81" rx="2.17" ry="1.31" fill="#5f5cea"></ellipse><path d="M148.25,160.67c-10.18-2.45-10.1,9.33-10.1,9.33v4.21a4.36,4.36,0,0,0,.17,1.83,2.46,2.46,0,0,0,1.92.72c.61,0,1.48-.1,1.82-.65a3.7,3.7,0,0,0,.15-1.59c-.06-1-.08-2,0-2.95.07-2.12.25-4.71,1.61-6.44a3.27,3.27,0,0,1,3.8-.94c5.23,1.73,5.08,8,5.08,8v11.62H157V171.91S156.19,162.58,148.25,160.67Z" fill="#5f5cea"></path><path d="M184.82,59.77c-4.43-9.47-13.91-13.95-21.69-9.67-3.32,1.82-.78,8.47,2.56,6.63,4.79-2.63,11.08-.28,13.91,5.77C181.51,66.57,186.75,63.89,184.82,59.77Z" fill="#2c2cb5"></path><path d="M191.31,49.06c-7.91-11.85-19.88-16.06-31-11.32-3.46,1.47-.89,8.1,2.56,6.63,8.72-3.72,17.89-.19,24,9C189.38,57.07,193.77,52.74,191.31,49.06Z" fill="#2c2cb5"></path><path d="M197.19,41C187.52,24.26,171,18.21,156.44,25.5c-3.38,1.69-.83,8.33,2.56,6.63,12.39-6.2,25.67-.87,33.8,13.25C195,49.26,199.42,44.9,197.19,41Z" fill="#2c2cb5"></path><path d="M262.17,137.07a14.75,14.75,0,0,0,1.29-4.38c.09-1.33-1-5.94,0-6.24s1.71,3.21,1.71,3.21.19-7.59,1.14-7.59.95,4.06.95,4.06.85-5.2,1.8-5,0,6.18,0,6.18.77-5.13,1.85-4.75,0,5.53,0,5.53.89-2.35,1.58-1.62-2.29,7.61-2.67,8.36-3.09,5-3.36,5.22S262.17,137.07,262.17,137.07Z" fill="#ffc799"></path><path d="M248,131.4c-1.86,1.16,5.25-7.28,5.15-8.61s1-5.94,0-6.24-1.71,3.21-1.71,3.21-.19-7.59-1.14-7.59-.95,4.06-.95,4.06-.85-5.2-1.8-5,0,6.18,0,6.18-.77-5.13-1.85-4.75,0,5.53,0,5.53-.89-2.35-1.58-1.62,1.55,5.92,1.92,6.67-4.6,6.68-4.33,6.9S248,131.4,248,131.4Z" fill="#ffc799"></path><path d="M219.8,145s13.29-10.25,14.48-11,11.53-11.08,11.53-11.08a65,65,0,0,0,7,3.12s-9.09,12.16-13,15.61c-3.48,3-14.21,11.38-14.21,11.38" fill="#2c2cb5"></path><path d="M220,235.71s-1.88,8-.73,8.9c0,0,6.93-3.65,8-.66.86,2.36-3.93,4.23-7.14,5.73-2.73,1.28-8.09,3-9.07.61S214.68,231,214.68,231" fill="#07375d"></path><path d="M240.92,248.94s-.57,8.22.7,8.9c0,0,7.27-3.89,8.81-1.11,1.22,2.19-3.95,5.28-6.67,6.59s-8,3.59-9.33,1.43.52-19.61.52-19.61" fill="#07375d"></path><path d="M222,240c2.51-11,10.28-46.46,9.35-57.64-1.11-13.31-11.47-9.42-11.47-9.42s-3.75,19.76-6.51,35c-2.18,12.09-4,27.74-4.61,33.74C213.14,243.69,218.75,243.4,222,240Z" fill="#68e1fd"></path><path d="M244.76,252.14c-.22-17.34-.37-63.18-5.32-73.92-6.25-13.55-12.85.2-12.85,6.52,0,5.83,4.77,63.8,5.51,72C236.49,258.82,243.21,256.83,244.76,252.14Z" fill="#68e1fd"></path><path d="M239.59,178.87c.73-7,2.66-27.84-.07-29.86-5-3.69-17.16-10.85-19.72-4-2,5.29-1.5,21.22-.3,30C225.35,178.46,232.9,180.55,239.59,178.87Z" fill="#2c2cb5"></path><path d="M232.2,139.13c-.13.19,0,5.45,0,5.45s-1.91.14-5.54-2.36l.29-5.55Z" fill="#ffc799"></path><path d="M230.49,126.76s1.63,4,3.32,5.35,3.21,4.41,1.75,7-11.84-.67-12-3.67S224.17,125.08,230.49,126.76Z" fill="#ffc799"></path><path d="M220.6,127.22a8.43,8.43,0,0,1,5.87-2.7c3.43.07,5.19,2,4.86,4s-2.81,2.76-2.89,3.92,1.61,6.64.8,8-2.34,1.19-3.87,1.14-6.57-3.7-7.52-8.08A5.81,5.81,0,0,1,220.6,127.22Z" fill="#352118"></path><path d="M235.53,147.1s14.79-2.16,16-2.91S263,133.1,263,133.1a65,65,0,0,0,7,3.12s-9.09,12.16-13,15.61c-3.48,3-17.77,9.55-17.77,9.55" fill="#2c2cb5"></path></svg>