<svg id="Layer_2" data-name="Layer 2" xmlns="http://www.w3.org/2000/svg" xmlns:xlink="http://www.w3.org/1999/xlink" viewBox="0 0 400 300" width="406" height="306" class="illustration"><defs><linearGradient id="linear-gradient" x1="215.44" y1="221.45" x2="238.14" y2="206.69" gradientUnits="userSpaceOnUse"><stop offset="0" stop-color="#25b000"></stop><stop offset="1" stop-color="#0e4500"></stop></linearGradient><linearGradient id="linear-gradient-2" x1="321.44" y1="203.35" x2="342.04" y2="181.78" xlink:href="#linear-gradient"></linearGradient><linearGradient id="linear-gradient-3" x1="150.34" y1="245.48" x2="170.21" y2="233.27" xlink:href="#linear-gradient"></linearGradient></defs><title>PP</title><path d="M193.6,288.79,13.87,182.57c-5.72-3.21-10.63-8.49-5.05-11.94l180.37-104c2.71-1.68,6.82-2.78,9.57-1.18L387.42,175c5.72,3.32,6.75,12.6,1,15.93L217.29,288.62A23.9,23.9,0,0,1,193.6,288.79Z" fill="#25b000"></path><path d="M171.73,170.13l29.85,11.2s1.25.81.45,2.75c-.46,1.11-2.93,2.71-2.93,2.71l-25.77,15a14.86,14.86,0,0,1-4.44,1.2c-2.06.12-5.51-1.55-5.51-1.55l-24-13.9Z" fill="#34323d"></path><path d="M172.15,168.75l28.52,11.66s2,1.09,1.47,2.57a6.16,6.16,0,0,1-2.55,2.59l-25.84,14.85a14.86,14.86,0,0,1-4.44,1.2c-2.06.12-5.51-1.55-5.51-1.55l-22.73-12.93Z" fill="#435950"></path><path d="M94.75,215a2.75,2.75,0,0,1-3.19-.77s-.56-.11-.56-2.56V98a7,7,0,0,1,2.49-5.14,82.23,82.23,0,0,1,8.7-5.32L228.54,14.6l1.42-.72a2.23,2.23,0,0,1,2.82.72,4.54,4.54,0,0,1,.62,2.07c.05,1.19,0,12.68,0,12.68v102.3a7.07,7.07,0,0,1-2.3,5.22Z" fill="#334c42"></path><path d="M93.32,197.8V99.69c0-3.26.45-5.08,3-6.44L229.57,16.06a1.76,1.76,0,0,1,2.81,1.42l-.33,100.88Z" fill="#17619e"></path><path d="M111.17,173.59v-72c0-2.39.33-3.73,2.17-4.73l97.84-56.66a1.3,1.3,0,0,1,2.07,1l-.24,74Z" fill="#68e1fd"></path><path d="M211.18,40.16,113.34,96.82c-1.84,1-2.17,2.34-2.17,4.73v7.07l102-58,0-9.38A1.3,1.3,0,0,0,211.18,40.16Z" fill="#fff"></path><ellipse cx="116.25" cy="100.73" rx="2.6" ry="1.38" transform="translate(-1.35 199.89) rotate(-81.05)" fill="#68e1fd"></ellipse><ellipse cx="121.17" cy="98.08" rx="2.6" ry="1.38" transform="translate(5.43 202.52) rotate(-81.05)" fill="#68e1fd"></ellipse><ellipse cx="126.1" cy="95.3" rx="2.6" ry="1.38" transform="translate(12.34 205.03) rotate(-81.05)" fill="#68e1fd"></ellipse><path d="M242.66,201.45l-2.93-3L201.21,218c7.57,4.13,12.18,8.24,20,11.9L246.39,214l7.71-5.43Z" opacity="0.32" fill="url(#linear-gradient)"></path><path d="M259.77,128.11c-.08.57-1.75,9.25-1.16,9.82s1.16-1.31,1.16-1.31.25,4.75,1.88,6,2.78-3.52,3.11-5.32a53.45,53.45,0,0,0,0-7.37" fill="#fdba45"></path><path d="M229.2,89.58V84.86s1.8-4.47,1.18-4.9-2.3,2.78-2.3,2.78-2.73-5.95-3.47-6-3.29,3.35-3.29,4.78,2.11,4.5,2.67,5.29a42.59,42.59,0,0,1,1.93,5.63" fill="#fdba45"></path><path d="M243.72,86.63s-7.21,13.67-8.51,13.32-5.55-11.53-5.55-11.53a65.53,65.53,0,0,0-6,3.55c-.71.7,3.43,20.67,13,19.91S249,102.33,249,102.33" fill="#ea8518"></path><path d="M245.18,121.51c-.77-.44-1.58-.88-2.35-1.27-3.25,5.86-5.07,12.17-6.69,18.63-.24,2.24-.46,4.47-.64,6.71-1.08,13.6,1.15,34.25,1.51,47.86.06,2.22,1.28,1.94,4.75,0C250.43,159.83,240.19,161.69,245.18,121.51Z" fill="#fdba45"></path><path d="M236.75,187.23s.5,8.34-.33,9.65-6.18,6-7.19,6.61-2.16,1.87-1.74,2.63,4.08,2.75,7,2.49,3.69-3.95,5.34-4.31,3.12-.33,3.73-2-2.1-9.49-1-13.64S236.75,187.23,236.75,187.23Z" fill="#fdba45"></path><path d="M235.63,202.8c-1.47.49-4,.8-5.05-.36a13.17,13.17,0,0,1-1.35,1c-1,.57-2.16,1.87-1.74,2.63s4.08,2.75,7,2.49,3.69-3.95,5.34-4.31,3.12-.33,3.73-2c.26-.71-.09-2.57-.48-4.79A17.84,17.84,0,0,1,235.63,202.8Z" fill="#475ba2"></path><path d="M256,127.21c-3-1.73-6.56-3.3-6.56-3.3-1.54,3.92-1.1,9-1.6,13.13-.58,4.74-1.13,9.48-1.51,14.24-1.08,13.6,1.15,34.25,1.51,47.86.06,2.22,1.28,1.94,4.75,0C261.29,165.53,251.05,167.39,256,127.21Z" fill="#fdba45"></path><line x1="251.05" y1="111.89" x2="236.6" y2="104.58" fill="#ff9a22"></line><line x1="211.82" y1="107.83" x2="213.14" y2="106.55" fill="#fff7f0"></line><path d="M243.82,192.05c3.85.43,8.77,1.89,12.5.85.52-9.71,2.61-59.07,2.44-62.06-.38-6.89-5.24-15.11-5.24-15.11L240,114.43s-4.77,9.06-5.35,14.74c-.23,2.29-2.45,50.29-2.42,58.72A27.67,27.67,0,0,0,243.82,192.05Z" fill="#68e1fd"></path><path d="M247.61,192.92s.5,8.34-.33,9.65-6.18,6-7.19,6.61-2.16,1.87-1.74,2.63,4.08,2.75,7,2.49,3.69-3.95,5.34-4.31,3.12-.33,3.73-2-2.1-9.49-1-13.64S247.61,192.92,247.61,192.92Z" fill="#fdba45"></path><path d="M246.49,208.49c-1.47.49-4,.8-5.05-.36a13.17,13.17,0,0,1-1.35,1c-1,.57-2.16,1.87-1.74,2.63s4.08,2.75,7,2.49,3.69-3.95,5.34-4.31,3.12-.33,3.73-2c.26-.71-.09-2.57-.48-4.79A17.84,17.84,0,0,1,246.49,208.49Z" fill="#475ba2"></path><path d="M265.28,107.36l0-.21A58.88,58.88,0,0,0,261.61,95c-.77-2-2.68-3.65-4.21-5.09a58.37,58.37,0,0,0-6.53-5.36s-4.62,1.11-7.15,2.08c-1.76.68-2.48,3-3.13,4.54-1.09,2.68-3.11,5.43-3.06,8.49a47.74,47.74,0,0,0,.73,6.59c.53,3.33,1.19,6.64,1.93,9.93,0,0,9.44.75,13.55.16l.87-8.66s2.77,13.62,3.87,20.94l.27,2.22,6.82.44a65.75,65.75,0,0,0,.45-11.77A90.79,90.79,0,0,0,265.28,107.36Z" fill="#ff9a22"></path><path d="M241.73,73.33S240.71,84,245,85.54s7.07-3.74,7.07-3.74,1.48-7.15.17-8.79S244.29,70.48,241.73,73.33Z" fill="#fdba45"></path><path d="M244.84,74.19a7.52,7.52,0,0,1-3.22,1.55c-1.49.14-2.31-2-2.52-3.14s.9-5,7.72-5.22,10.84,5.56,10.84,9-.41,12.11-.41,12.11a65.15,65.15,0,0,1-8.9-1s2.28-7.84,1.8-10.27S244.84,74.19,244.84,74.19Z" fill="#475ba2"></path><path d="M332.7,207.47q5.59-3.43,11.09-7c6.27-4.08,13.24-7.94,19.06-12.81l-29.31-7.9L302.3,195.71c6.07,3.18,14.31,7.56,26.32,14.16C330,209.07,331.36,208.29,332.7,207.47Z" opacity="0.32" fill="url(#linear-gradient-2)"></path><path d="M349.78,142.87c-11.52,0-20.86,3.05-20.86,6.82h41.72C370.64,145.92,361.3,142.87,349.78,142.87Z" fill="#0a1d23"></path><path d="M329,150.21l-.07-.53A2.31,2.31,0,0,0,329,150.21Z" fill="#06489e"></path><path d="M370.64,149.68l-.08.6A2.32,2.32,0,0,0,370.64,149.68Z" fill="#06489e"></path><path d="M349.78,156.5c10.9,0,19.85-2.74,20.78-6.22l.08-.6H328.92l.07.53C329.81,153.73,338.8,156.5,349.78,156.5Z" fill="#0a1d23"></path><rect x="353.06" y="114.47" width="4.69" height="48.42" fill="#25b000"></rect><ellipse cx="355.4" cy="114.47" rx="2.35" ry="0.99" fill="#25b000"></ellipse><rect x="358.69" y="122.75" width="4.69" height="48.42" transform="translate(36.7 -69.26) rotate(11.54)" fill="#ff8f02"></rect><ellipse cx="365.88" cy="123.24" rx="0.99" ry="2.35" transform="translate(171.93 457.07) rotate(-78.46)" fill="#ff8f02"></ellipse><path d="M344.11,150.75l-4.28,2.45a.38.38,0,0,1-.38-.66l4.38-2.51a.39.39,0,0,1,.14,0l-.86-4.64-4.31,2.46a.38.38,0,0,1-.38-.66l4.38-2.51a.38.38,0,0,1,.16-.05l-.8-4.29-4.24,2.42a.38.38,0,0,1-.38-.66l4.38-2.51.09,0-.89-4.78-4.22,2.41a.38.38,0,0,1-.38-.66l4.38-2.51.07,0-.87-4.67-4.29,2.45a.38.38,0,0,1-.38-.66l4.38-2.51a.39.39,0,0,1,.14,0l-.75-4.05-4.29,2.45a.38.38,0,0,1-.38-.66l4.38-2.51a.39.39,0,0,1,.14,0l-.75-4-4.28,2.45a.38.38,0,0,1-.38-.66l4.38-2.51.13,0-.83-4.46-4.24,2.42a.38.38,0,0,1-.38-.66l4.38-2.51.08,0-.38-2.07-9.31,5.77s6.61,36.81,6.75,36.88c3.86,2,10.88,2.25,10.88,2.25Z" fill="#ff9a22"></path><path d="M332.76,116.22a.38.38,0,0,0,.38.66l4.24-2.42-.14-.78-.08,0Z" fill="#ca4300"></path><path d="M333.69,121.47a.38.38,0,0,0,.38.66l4.28-2.45-.14-.76-.13,0Z" fill="#ca4300"></path><path d="M334.57,126.28a.38.38,0,0,0,.38.66l4.29-2.45-.14-.76a.39.39,0,0,0-.14,0Z" fill="#ca4300"></path><path d="M335.47,131.09a.38.38,0,0,0,.38.66l4.29-2.45-.14-.76a.39.39,0,0,0-.14,0Z" fill="#ca4300"></path><path d="M336.55,136.5a.38.38,0,0,0,.38.66l4.22-2.41L341,134l-.07,0Z" fill="#ca4300"></path><path d="M337.56,142.07a.38.38,0,0,0,.38.66l4.24-2.42-.14-.78-.09,0Z" fill="#ca4300"></path><path d="M342.81,144.65l-4.38,2.51a.38.38,0,0,0,.38.66l4.31-2.46-.14-.75A.38.38,0,0,0,342.81,144.65Z" fill="#ca4300"></path><path d="M339.45,152.54a.38.38,0,0,0,.38.66l4.28-2.45L344,150a.39.39,0,0,0-.14,0Z" fill="#ca4300"></path><path d="M363.58,122.77s.24,1.23,2.1,1.44,2.5-.5,2.5-.5l-.6-9.24Z" fill="#ffd8bd"></path><path d="M367.57,114.47l-1.85,3.85a1.69,1.69,0,0,0,2.13.3Z" fill="#653200"></path><path d="M353.06,114.19s.43,1.18,2.3,1.09,2.39-.89,2.39-.89l-2.06-9Z" fill="#ffd8bd"></path><path d="M355.69,105.37l-1.22,4.1a1.69,1.69,0,0,0,2.15,0Z" fill="#653200"></path><path d="M349.78,156.5c-11,0-20-2.77-20.79-6.29.54,4.21,4.29,33.16,4.44,33.32,0,0,1.91,8.16,16.35,8.16,12.29,0,15.79-6.17,15.79-6.17l5-35.24C369.63,153.77,360.68,156.5,349.78,156.5Z" fill="#68e1fd"></path><polygon points="206.17 103.04 206.17 68.25 182.48 81.9 182.48 116.61 206.17 103.04" fill="#fff" opacity="0.57"></polygon><polygon points="142.76 137.76 142.76 102.97 119.07 116.61 119.07 151.32 142.76 137.76" fill="#fff" opacity="0.57"></polygon><path d="M172.37,228.77l-2.93-3-38.53,19.51c7.57,4.13,12.18,8.24,20,11.9l25.16-15.85,7.71-5.43Z" opacity="0.32" fill="url(#linear-gradient-3)"></path><path d="M115.74,132c.79.36,1.56.73,2.34,1.1-.61-.38-1.22-.78-1.8-1.21s-1.44-1.39-1.31-2.18c.19-1.19,2.25-.13,3.79.83-1.07-.93-1.95-2-1-2.41s1.91.76,2.48,1.16c1,.72,2,1.49,2.93,2.31a20.63,20.63,0,0,1-1.78-2.8c-.55-.92.82-1.68,1.49-1a58.07,58.07,0,0,0,6.11,5.75.94.94,0,0,1,.25.28l1.33,0c.4,0,.77,0,1.14,0l.32,0a.81.81,0,0,1,.75.23,2.59,2.59,0,0,1,.5.23.84.84,0,0,1,.14.12c.44,0,.88.08,1.31.14a1,1,0,0,1,.71,1.37l.18-.1c1-.61,1.77,1,.79,1.63a13.2,13.2,0,0,1-6.92,1.95.42.42,0,0,1-.46.37,27.24,27.24,0,0,1-7.63-1.3,4.65,4.65,0,0,1-.89-.35,13.45,13.45,0,0,1-4-2.55.5.5,0,0,1,.49-.84l.43.13c-.28-.16-.56-.31-.83-.48-.68-.43-1.49-.95-1.6-1.81A.51.51,0,0,1,115.74,132Z" fill="#fcbf81"></path><path d="M149.56,120.92c.36-.11-2.83-4.5-3.09-4.91a79.58,79.58,0,0,1-4.2-7.55.54.54,0,0,0-.18-.2,13.59,13.59,0,0,0-.79-1.44.64.64,0,0,0-1.2.31,7.5,7.5,0,0,0,1,4.21c-.31.35-.66.72-1,1.11a.26.26,0,0,1,.1.29,1.94,1.94,0,0,1-.32.59,1.39,1.39,0,0,1-.29.34.31.31,0,0,1-.17.07,2,2,0,0,0,.41,1.7,2.56,2.56,0,0,0-.12,1.84l0,.08.1,0A18.76,18.76,0,0,1,142.2,119a.29.29,0,0,1-.09.46,16.8,16.8,0,0,0,1.88.77.55.55,0,0,0,.44,0c.08.08.16.16.25.24a.65.65,0,0,0,1.08-.27.74.74,0,0,0,0-.23l.23.26a.74.74,0,0,0,.66.93.75.75,0,0,0,.83-.59.87.87,0,0,0,0-.29l.49.75a.18.18,0,0,0,.32-.05.14.14,0,0,0,0-.07,10,10,0,0,1,.68,1.34C152.27,127.12,149.65,121.09,149.56,120.92Zm-2.84-.14a.41.41,0,0,1-.4-.38.66.66,0,0,0,.55-.11l0,0a.17.17,0,0,0,.26,0s0,0,0,0A.41.41,0,0,1,146.73,120.78Z" fill="#fcbf81"></path><path d="M148.7,120.8a7,7,0,0,1-1.72-2,1.34,1.34,0,0,0-1.86-.52,7.86,7.86,0,0,1-.07-1.07c0-1.81-2.85-1.84-2.82,0a6.86,6.86,0,0,0,1.09,4,11.55,11.55,0,0,0,3.07,2.72,1.45,1.45,0,0,0,2.15-1.09l.13-.1A1.42,1.42,0,0,0,148.7,120.8Z" fill="#fcbf81"></path><path d="M144.36,121.58a5,5,0,0,1-2.17-5.51.16.16,0,0,0,0-.14.17.17,0,0,0,0,0l-.95-1.68c-.14-.25-.3-.5-.42-.76-.2-.45-.45-2.19.81-1.46a6.64,6.64,0,0,1,1.14,1.59c.36.52.7,1.06,1,1.59.12.19.43,0,.31-.17q-.93-1.49-2-2.91c-.32-.44-.66-.9-1.26-.62a1.09,1.09,0,0,0-.66,1.2c-.22.42-.68.74-.76,1.23a2.41,2.41,0,0,0,.42,1.4l.16.27a.17.17,0,0,0-.06.08c-.2.54-.57,1.14-.16,1.66a2.63,2.63,0,0,0,.63.52l1.13.76a.16.16,0,0,0,.23-.05,5.72,5.72,0,0,0,2.39,3.34C144.37,122,144.55,121.71,144.36,121.58ZM140,114.7a1.07,1.07,0,0,1,.07-1.18c.09-.12.18-.23.26-.34a13.4,13.4,0,0,0,1.54,2.87l0,.12a.16.16,0,0,0-.19,0C140.85,116.58,140.2,115.24,140,114.7Zm.4,2.67a.73.73,0,0,1-.38-.78,3.89,3.89,0,0,1,.25-.7c.37.49.89.89,1.49.59a4.93,4.93,0,0,0,0,1.81C141.29,118,140.82,117.69,140.38,117.37Z" fill="#34323d"></path><path d="M164.33,127.57S156.1,128,154,126s-5.23-8.18-5.23-8.18-5.67,3.64-6,5.74,5.93,12.24,8.68,12.92" fill="#4d47c4"></path><path d="M176.82,229s-7-3.09-8.63-3.22-4.47.45-2,3.52c0,0,7.32,4.79,8.28,4.94s3.31-.58,3.37-.33.28,2.1.28,2.1,6.12,2.33,6.38-1.76c0-.53-.88-8.13-.88-8.13" fill="#34323d"></path><path d="M184.8,211.11c-1.21-7.86-3.42-15.48-4.35-23.44-.58-5-1-10-1.61-15s-2.48-9.84-3.68-14.79a.54.54,0,0,1,.25-.61c-.06-.17-.11-.35-.16-.52-.62-.59-1.25-1.15-1.86-1.68l-8.55,5.76s.05,5.24.32,12.82c1,4.42,1.75,8.37,2.87,12.56a1.1,1.1,0,0,0-.26,1,355.19,355.19,0,0,1,6.07,40,1.16,1.16,0,0,0,.76,1l.24,2.07c7.44,2.87,9.07-2.13,9.07-2.13s.34-4.26.76-10.18C184.81,215.65,184.85,213.38,184.8,211.11Z" fill="#68e1fd"></path><path d="M161.6,240.47,157.46,242a2.28,2.28,0,0,1-1.67,1.52.92.92,0,0,1-.58.32,10.83,10.83,0,0,1-4.91-.8c-2-.62-9.71-3.58-7.56,2,1.41,1,3,1.85,4.43,2.73.81.49,1.63,1,2.46,1.44a4.88,4.88,0,0,0,1.44.67c1.11.17,3.81-.67,3.88-.38s.32,2.42.32,2.42,7,2.68,7.34-2C162.65,249.2,161.6,240.47,161.6,240.47Z" fill="#34323d"></path><path d="M167.41,198.19c.86-13.9,1.34-27.88,4.27-41.55.13-3.55,2.43-1.28,2.27-2.69-1.25-11.43-17.91,2.17-17.91,2.17-.67.55-.76,4.06-.89,4.85q-1.13,6.59-1.93,13.22c-2.76,22.33-1.74,44.54-.61,66.94,3.54,3.62,5.86,4.7,11.56,2.36,1.14-14.66,2.22-29.32,3.16-44Z" fill="#68e1fd"></path><path d="M158.5,129.09c.16-.72,2-1.21,2.58-1.51,1.29-.7.54-1.92,1.8-2.68a43.37,43.37,0,0,1,5.72-2.79h.05c3.16,0,8.46-.18,8.78,4,.49,6.5-.08,13-.58,19.46-.2,2.6-.43,5.18-.66,7.72-.08.93-.2,8.43-.76,8.66-6.27,2.6-14.29,1.68-20.43-.75A208.6,208.6,0,0,1,158.5,129.09Z" fill="#695dd8"></path><path d="M164.13,135.65a10.6,10.6,0,0,1-7.79,9.31c0,.43-.13,3.07-.18,3.5,5-1.2,8.7-7.49,9.22-12.81C165.47,134.85,164.21,134.85,164.13,135.65Z" fill="#34323d"></path><path d="M167.19,109c-.41.11-3.92,8.17-2.54,13.06s9.69-.14,11.78-3.87S175.06,106.93,167.19,109Z" fill="#fcbf81"></path><path d="M167.31,110.09a3.87,3.87,0,0,0,2.32,3.52c2.33.86,4.26,1.44,4.14,2.52s-4.21-.15-4.22,2.31a18.37,18.37,0,0,0,.67,4.91c.26,1.21,7.24-2.49,9.54-8.81s-3.46-8-3.74-8-.8-1.76-3.63-2.37-3.62.48-3.62.48a3.43,3.43,0,0,0-4.13.45c-2.61,2.07-1.94,5.85,1,7.38Z" fill="#34323d"></path><path d="M164.15,124.2s-14.38,8.24-19.56,8.25c-3.74,0-11.14-1.21-15-1.89-3.56,3-3.8,8.3-1.59,12.35,6.28,1,24.88,3.7,30.71.81,7.06-3.5,14.83-8.19,14.83-8.19S180.6,128.63,164.15,124.2Z" fill="#695dd8"></path></svg>